<?xml version="1.0" encoding="UTF-8"?>
<svg width="54px" height="45px" viewBox="0 0 54 45" version="1.1" xmlns="http://www.w3.org/2000/svg" xmlns:xlink="http://www.w3.org/1999/xlink">
    <title>back-icon</title>
    <g id="Page-1" stroke="none" stroke-width="1" fill="none" fill-rule="evenodd">
        <g id="back-icon" transform="translate(26.682500, 22.115661) scale(-1, 1) translate(-26.682500, -22.115661) translate(0.365000, 0.037114)" fill="#FFFFFF" fill-rule="nonzero">
            <g transform="translate(26.317500, 22.078547) scale(-1, 1) translate(-26.317500, -22.078547) " id="Fill-90">
                <path d="M52.635,25.2717856 C52.635,26.4597856 52.042,27.0517856 50.853,27.0517856 L15.731,27.0517856 L24.536,37.3427856 C25.328,38.2317856 25.328,39.0237856 24.438,39.7157856 L20.084,43.5757856 C19.193,44.3667856 18.502,44.3667856 17.709,43.4757856 L0.891,24.1837856 C0.296,23.3917856 0,22.8967856 0,22.3037856 C0,21.2157856 0.296,20.7217856 0.891,20.0277856 L17.709,0.733785609 C18.502,-0.155214391 19.193,-0.255214391 20.084,0.536785609 L24.339,4.59478561 C25.328,5.38478561 25.328,6.07878561 24.536,6.96778561 L15.731,17.1577856 L50.853,17.1577856 C52.042,17.1577856 52.635,17.6527856 52.635,18.8397856 L52.635,25.2717856 Z"></path>
            </g>
        </g>
    </g>
</svg>