<?xml version="1.0" encoding="UTF-8"?>
<svg width="101px" height="93px" viewBox="0 0 101 93" version="1.1" xmlns="http://www.w3.org/2000/svg" xmlns:xlink="http://www.w3.org/1999/xlink">
    <title>Group 37</title>
    <g id="Page-1" stroke="none" stroke-width="1" fill="none" fill-rule="evenodd" stroke-linecap="round" stroke-linejoin="round">
        <g id="hangi_easyfishoil_arayüz_1080x1920px" transform="translate(-49.000000, -83.000000)" stroke="#FFFFFF">
            <g id="Group-37" transform="translate(51.379800, 84.212000)">
                <path d="M38.5257,13.788 C38.5257,34.542 55.3197,51.336 76.0737,51.336" id="Stroke-21" stroke-width="3"></path>
                <path d="M75.0965,51.3365 C54.3425,51.3365 37.5485,68.1305 37.5485,88.8855" id="Stroke-23" stroke-width="3"></path>
                <path d="M37.548,89.788 C37.548,69.034 20.754,52.24 1.42108547e-14,52.24" id="Stroke-25" stroke-width="3"></path>
                <path d="M0.9771,52.2395 C21.7311,52.2395 38.5261,35.4455 38.5261,14.6905" id="Stroke-27" stroke-width="3"></path>
                <path d="M75.103,0 C75.103,12.446 85.174,22.517 97.62,22.517" id="Stroke-29" stroke-width="2"></path>
                <path d="M97.0339,22.5172 C84.5879,22.5172 74.5169,32.5882 74.5169,45.0342" id="Stroke-31" stroke-width="2"></path>
                <path d="M74.5167,45.576 C74.5167,33.13 64.4457,23.059 51.9997,23.059" id="Stroke-33" stroke-width="2"></path>
                <path d="M52.5858,23.0588 C65.0318,23.0588 75.1028,12.9878 75.1028,0.5418" id="Stroke-35" stroke-width="2"></path>
            </g>
        </g>
    </g>
</svg>